<?xml version="1.0" encoding="utf-8"?>
<!-- Generator: Adobe Illustrator 24.1.3, SVG Export Plug-In . SVG Version: 6.00 Build 0)  -->
<svg version="1.1" id="Layer_1" xmlns="http://www.w3.org/2000/svg" xmlns:xlink="http://www.w3.org/1999/xlink" x="0px" y="0px"
	 viewBox="0 0 283.46 283.46" style="enable-background:new 0 0 283.46 283.46;" xml:space="preserve">
<style type="text/css">
	.st0{fill:#164194;}
	.st1{fill:#FFFFFF;}
</style>
<rect class="st0" width="283.46" height="283.46"/>
<g>
	<path class="st1" d="M172.71,161.59c0.52-1.29,3.87-10.09,4.8-22.82c0,0,0.11-2.14,0.02-3.75c-0.13-2.3-0.24-6.02-2.05-10.15
		c-2.75-6.25-7.81-11.34-17.48-19.34l-7.61-6.26c-17.93-14.72-21.99-25.2-21.99-36.7c0-18.1,13.53-30.44,35.01-30.44
		c6.59,0,11.5,0.67,15.73,1.69c3.21,0.67,4.56,0.85,5.92,0.85c1.36,0,1.69,0.34,1.69,1.18c0,0.84-0.68,6.43-0.68,17.93
		c0,2.71-0.34,3.89-1.18,3.89c-1.02,0-1.18-0.85-1.36-2.2c-0.16-2.03-1.18-6.6-2.19-8.46c-1.01-1.86-5.58-8.96-21.14-8.96
		c-11.67,0-20.8,7.27-20.8,19.62c0,9.64,4.4,15.73,20.64,28.41l4.74,3.72c19.95,15.73,24.69,26.21,24.69,39.75
		c0,6.9-5.09,23.77-16.65,32.1C172.75,161.69,172.67,161.7,172.71,161.59"/>
	<path class="st1" d="M136.44,160.01c0.03,0.03,0.02,0.05,0,0.08c-2.32,3.1-9.66,4.52-13.91,4.52c-3.61,0-10.15-0.2-15.12-4.7
		c-3.47-3.13-6.06-8.17-6.06-18.05v-9.95c0-10.35,0-12.26-0.13-14.44c-0.13-2.32-0.68-3.41-2.93-3.88c-0.55-0.13-1.7-0.2-2.66-0.2
		c-0.75,0-1.16-0.13-1.16-0.61c0-0.48,0.48-0.61,1.5-0.61c3.61,0,7.9,0.2,9.94,0.2c1.64,0,5.93-0.2,8.38-0.2
		c1.02,0,1.5,0.13,1.5,0.61c0,0.48-0.41,0.61-1.09,0.61c-0.75,0-1.16,0.07-1.97,0.2c-1.84,0.34-2.38,1.5-2.52,3.88
		c-0.13,2.18-0.13,4.09-0.13,14.44v9.54c0,9.88,1.96,14.05,5.31,16.76c2.87,2.32,5.33,2.88,7.39,3.39
		c4.24,1.05,10.69,0.86,13.59-1.58C136.38,160,136.41,159.99,136.44,160.01"/>
	<path class="st1" d="M135.27,128.55c0-8.57,0-10.15-0.11-11.95c-0.11-1.92-0.67-2.87-1.92-3.16c-0.62-0.17-1.35-0.23-2.03-0.23
		c-0.56,0-0.9-0.11-0.9-0.57c0-0.34,0.45-0.45,1.36-0.45c2.14,0,5.69,0.17,7.32,0.17c1.41,0,4.74-0.17,6.88-0.17
		c0.73,0,1.18,0.12,1.18,0.45c0,0.45-0.34,0.57-0.9,0.57c-0.57,0-1.01,0.06-1.69,0.17c-1.52,0.28-1.97,1.24-2.08,3.21
		c-0.12,1.8-0.12,3.38-0.12,11.95v9.92c0,5.47,0,7.06,0.23,9.48c0.17,1.52,0.57,2.54,2.25,2.76c0.79,0.11,2.03,0.23,2.88,0.23
		c0.62,0,0.9,0.17,0.9,0.45c0,0.39-0.45,0.57-1.07,0.57c-3.72,0-7.27-0.17-8.8-0.17c-1.3,0-4.85,0.17-7.1,0.17
		c-0.73,0-1.13-0.17-1.13-0.57c0-0.28,0.23-0.45,0.9-0.45c0.85,0,1.52-0.12,2.03-0.23c1.13-0.22,1.47-1.18,1.64-2.82
		c0.28-2.37,0.28-3.96,0.28-9.42V128.55"/>
	<g>
		<path class="st1" d="M68.45,207.47c0,2.02-0.12,3.88-1.49,5.52c-1.36,1.63-3.41,2.25-5.49,2.25c-1.99,0-4.09-0.41-5.45-1.96
			c-1.48-1.66-1.61-3.71-1.61-5.81V194.6h2.55v12.87c0,1.22,0.03,2.88,0.77,3.95c0.83,1.21,2.55,1.57,3.94,1.57
			c1.31,0,2.79-0.41,3.65-1.45c0.98-1.16,0.98-2.67,0.98-4.06V194.6h2.14V207.47z"/>
		<path class="st1" d="M76.19,202.66h0.06c0.86-1.87,2.55-3.18,4.69-3.18c1.81,0,3.32,0.77,4.27,2.34c0.77,1.28,0.71,3.29,0.71,4.78
			v8.33H83.6v-9.31c0-0.89,0.03-2.02-0.41-2.79c-0.51-0.86-1.6-1.37-2.58-1.37c-1.22,0-2.31,0.57-3.11,1.51
			c-0.98,1.18-1.18,2.55-1.18,4.06v7.89h-2.32v-15.07h2.19V202.66z"/>
		<path class="st1" d="M91.4,199.88h2.32v15.07H91.4V199.88z M91.28,194.6h2.55v2.61h-2.55V194.6z"/>
		<polygon class="st1" points="104.98,214.94 102.56,214.94 97.19,199.88 99.76,199.88 103.98,212.12 108.1,199.88 110.18,199.88 		
			"/>
		<path class="st1" d="M123.34,205.87c0.03-2.49-1.36-4.6-4.03-4.6c-2.52,0-4.15,2.22-4.24,4.6H123.34z M125.66,210.82
			c-0.89,2.76-3.53,4.42-6.41,4.42c-4.57,0-6.91-3.62-6.91-7.83c0-4.15,2.47-7.92,6.97-7.92c4.69,0,6.7,3.92,6.58,8.1h-10.94
			c0,1.19,0.06,2.28,0.62,3.41c0.71,1.43,2.28,2.28,3.85,2.28c1.96,0,3.38-1.13,4.03-2.9L125.66,210.82z"/>
		<path class="st1" d="M132.51,199.88v3.53h0.06c0.71-2.05,1.99-3.95,4.42-3.95l0.86,0.06v2.22h-0.47c-1.78,0-3.03,0.86-3.88,2.37
			c-0.63,1.1-0.74,2.05-0.74,3.23v7.59h-2.32v-15.07H132.51z"/>
		<path class="st1" d="M142.8,210.5c0.32,2.04,2.73,2.82,4.53,2.82c1.6,0,3.65-0.57,3.65-2.49c0-1.6-1.63-2.05-2.94-2.29l-2.46-0.44
			c-2.31-0.45-4.42-1.51-4.42-4.18c0-3.11,2.88-4.42,5.64-4.42c2.7,0,5.22,1.01,5.96,3.8l-2.14,0.44c-0.59-1.67-2.13-2.37-3.86-2.37
			c-1.36,0-3.2,0.53-3.2,2.2c0,1.63,1.36,1.99,2.7,2.2l2.19,0.39c1.1,0.21,2.23,0.41,3.15,1.04c1.19,0.8,1.81,2.05,1.81,3.41
			c0,3.41-3.32,4.66-6.26,4.66c-2.94,0-5.85-1.22-6.61-4.3L142.8,210.5z"/>
		<path class="st1" d="M158.13,199.88h2.31v15.07h-2.31V199.88z M158.01,194.6h2.55v2.61h-2.55V194.6z"/>
		<path class="st1" d="M173.14,215.06l-2.22,0.18c-3.29,0-4.27-1.93-4.27-4.92v-8.72h-2.67v-1.84h2.67v-3.74l2.31-0.24v3.98h3.35
			v1.84h-3.35v9.1c0,1.75,0.5,2.67,2.4,2.67l1.78-0.15V215.06z"/>
		<path class="st1" d="M186.51,205.87c0.03-2.49-1.36-4.6-4.03-4.6c-2.52,0-4.16,2.22-4.24,4.6H186.51z M188.83,210.82
			c-0.89,2.76-3.53,4.42-6.41,4.42c-4.57,0-6.91-3.62-6.91-7.83c0-4.15,2.46-7.92,6.97-7.92c4.69,0,6.7,3.92,6.58,8.1h-10.95
			c0,1.19,0.06,2.28,0.63,3.41c0.71,1.43,2.29,2.28,3.86,2.28c1.96,0,3.38-1.13,4.03-2.9L188.83,210.82z"/>
		<path class="st1" d="M200.72,215.06l-2.22,0.18c-3.29,0-4.27-1.93-4.27-4.92v-8.72h-2.67v-1.84h2.67v-3.74l2.31-0.24v3.98h3.36
			v1.84h-3.36v9.1c0,1.75,0.51,2.67,2.41,2.67l1.78-0.15V215.06z"/>
		<path class="st1" d="M214.1,205.87c0.03-2.49-1.36-4.6-4.03-4.6c-2.52,0-4.15,2.22-4.24,4.6H214.1z M216.41,210.82
			c-0.89,2.76-3.53,4.42-6.41,4.42c-4.57,0-6.91-3.62-6.91-7.83c0-4.15,2.46-7.92,6.97-7.92c4.69,0,6.7,3.92,6.58,8.1H205.7
			c0,1.19,0.06,2.28,0.63,3.41c0.71,1.43,2.28,2.28,3.85,2.28c1.96,0,3.38-1.13,4.03-2.9L216.41,210.82z"/>
		<path class="st1" d="M228.3,215.06l-2.22,0.18c-3.29,0-4.27-1.93-4.27-4.92v-8.72h-2.67v-1.84h2.67v-3.74l2.31-0.24v3.98h3.35
			v1.84h-3.35v9.1c0,1.75,0.51,2.67,2.4,2.67l1.78-0.15V215.06z"/>
	</g>
	<path class="st1" d="M54.53,245.8h2.32v-15.07h-2.32V245.8z M54.42,228.06h2.55v-2.61h-2.55V228.06z"/>
	<g>
		<path class="st1" d="M69.45,239.81c0.83,2.82,3.18,4.12,6.02,4.12c1.22,0,2.7-0.26,3.65-1c0.77-0.59,1.25-1.63,1.25-2.61
			c0-2.05-1.69-2.88-3.47-3.32l-3.38-0.83c-1.36-0.33-2.61-0.65-3.67-1.63c-1.07-0.95-1.67-2.34-1.67-3.77
			c0-3.91,3.38-5.61,6.91-5.61c3.41,0,6.14,1.69,7.24,4.98l-2.32,0.63c-0.44-2.22-2.82-3.59-4.98-3.59c-1.93,0-4.36,1.01-4.36,3.23
			c0,2.28,1.78,2.79,3.68,3.23l3.05,0.74c1.33,0.3,2.67,0.68,3.71,1.57c1.27,1.04,1.9,2.43,1.9,4.03c0,1.84-0.8,3.5-2.29,4.63
			c-1.48,1.13-3.47,1.48-5.31,1.48c-4.15,0-6.88-1.84-8.24-5.78L69.45,239.81z"/>
		<path class="st1" d="M94.57,245.92l-2.22,0.18c-3.29,0-4.27-1.93-4.27-4.92v-8.72h-2.67v-1.84h2.67v-3.74l2.31-0.24v3.98h3.35
			v1.84h-3.35v9.1c0,1.75,0.51,2.67,2.4,2.67l1.78-0.15V245.92z"/>
		<path class="st1" d="M107.5,238.21h-1.93c-2.37,0-6.11,0.33-6.11,3.44c0,1.87,1.6,2.64,3.26,2.64c2.85,0,4.77-2.43,4.77-5.1
			V238.21z M107.5,236.46v-0.65c0-2.64-1.16-3.65-3.83-3.65c-1.9,0-3.71,0.59-4.12,2.67l-2.17-0.36c0.42-3.15,3.74-4.12,6.5-4.12
			c1.63,0,3.5,0.18,4.63,1.49c1.24,1.33,1.24,3.23,1.24,4.95v5.85c0,1.1,0.03,2.2,0.33,3.18h-2.31l-0.27-2.82
			c-1.06,2.17-2.88,3.11-5.28,3.11c-2.82,0-5.25-1.57-5.25-4.57c0-1.81,1.13-3.44,2.79-4.18c1.69-0.8,3.92-0.89,5.78-0.89H107.5z"/>
		<polygon class="st1" points="119.99,245.8 117.56,245.8 112.19,230.74 114.77,230.74 118.98,242.98 123.1,230.74 125.18,230.74 		
			"/>
		<path class="st1" d="M137.9,238.21h-1.93c-2.37,0-6.11,0.33-6.11,3.44c0,1.87,1.6,2.64,3.26,2.64c2.85,0,4.77-2.43,4.77-5.1
			V238.21z M137.9,236.46v-0.65c0-2.64-1.16-3.65-3.83-3.65c-1.9,0-3.71,0.59-4.12,2.67l-2.17-0.36c0.42-3.15,3.74-4.12,6.5-4.12
			c1.63,0,3.5,0.18,4.63,1.49c1.25,1.33,1.25,3.23,1.25,4.95v5.85c0,1.1,0.03,2.2,0.33,3.18h-2.32l-0.27-2.82
			c-1.07,2.17-2.87,3.11-5.28,3.11c-2.82,0-5.25-1.57-5.25-4.57c0-1.81,1.13-3.44,2.79-4.18c1.69-0.8,3.91-0.89,5.78-0.89H137.9z"/>
		<path class="st1" d="M147.54,233.52h0.06c0.86-1.87,2.55-3.18,4.69-3.18c1.81,0,3.32,0.77,4.27,2.34
			c0.77,1.28,0.71,3.29,0.71,4.78v8.33h-2.32v-9.31c0-0.89,0.03-2.02-0.42-2.79c-0.51-0.86-1.6-1.36-2.58-1.36
			c-1.22,0-2.31,0.56-3.11,1.51c-0.98,1.18-1.19,2.55-1.19,4.06v7.89h-2.31v-15.07h2.2V233.52z"/>
		<path class="st1" d="M167.44,238.83c2.02,0,3.35-1.33,3.35-3.35c0-1.9-1.51-3.29-3.35-3.29c-1.96,0-3.38,1.39-3.38,3.32
			C164.07,237.55,165.4,238.83,167.44,238.83 M167.74,249.69c1.13,0,2.88-0.18,3.88-0.65c0.83-0.39,1.3-0.86,1.3-1.78
			c0-1.45-1.63-1.72-3.2-1.81c-0.89-0.06-3.47-0.03-5.1-0.24c-0.89,0.41-1.63,0.98-1.63,2.04C163,249.33,166.2,249.69,167.74,249.69
			 M167.44,230.35c1.04,0,2.11,0.21,3.06,0.65c0.39-2.13,1.42-2.61,3.47-2.61l0.59,0.03l0.03,1.87h-0.24
			c-1.36,0-2.43,0.15-2.67,1.72c0.92,1,1.45,2.34,1.45,3.71c0,1.48-0.8,2.87-1.93,3.77c-1.1,0.83-2.46,1.16-3.83,1.16
			c-0.68,0-1.48-0.24-2.04-0.24c-0.71,0-1.6,0.63-1.6,1.39c0,0.71,0.47,1.13,1.13,1.28c1.04,0.24,2.49,0.18,3.56,0.24
			c1.31,0.06,3.23,0.09,4.42,0.54c1.39,0.53,2.32,1.84,2.32,3.32c0,3.82-4.54,4.33-7.45,4.33c-1.39,0-3.12-0.06-4.42-0.6
			c-1.45-0.59-2.58-1.66-2.58-3.32c0-1.57,0.86-2.55,2.29-3.05c-0.86-0.56-1.45-1.24-1.45-2.37c0-1.49,0.86-2.14,2.08-2.7
			c-1.28-1-1.96-2.34-1.96-3.97C161.66,232.22,164.42,230.35,167.44,230.35"/>
		<path class="st1" d="M188.32,236.73c0.03-2.49-1.36-4.6-4.03-4.6c-2.52,0-4.16,2.22-4.24,4.6H188.32z M190.64,241.68
			c-0.89,2.76-3.53,4.41-6.41,4.41c-4.57,0-6.91-3.61-6.91-7.83c0-4.15,2.46-7.92,6.97-7.92c4.69,0,6.7,3.92,6.58,8.1h-10.95
			c0,1.18,0.06,2.28,0.62,3.41c0.71,1.43,2.29,2.28,3.86,2.28c1.96,0,3.38-1.13,4.03-2.9L190.64,241.68z"/>
		<path class="st1" d="M197.49,230.74v3.53h0.06c0.71-2.05,1.99-3.95,4.42-3.95l0.86,0.06v2.22h-0.47c-1.78,0-3.03,0.86-3.89,2.37
			c-0.62,1.1-0.74,2.05-0.74,3.23v7.59h-2.32v-15.07H197.49z"/>
	</g>
	<rect x="52.66" y="180.83" class="st1" width="179.14" height="1.46"/>
</g>
</svg>
